<mxfile host="app.diagrams.net" modified="2023-09-10T20:48:41.874Z" agent="Mozilla/5.0 (Windows NT 10.0; Win64; x64) AppleWebKit/537.36 (KHTML, like Gecko) Chrome/116.0.0.0 Safari/537.36" etag="OkpDXvWDVSeR9tetPElp" version="21.7.4" type="github">
  <diagram name="Página-1" id="jl7oYXIyc0JNOiI-bhLO">
    <mxGraphModel dx="1195" dy="632" grid="1" gridSize="10" guides="1" tooltips="1" connect="1" arrows="1" fold="1" page="1" pageScale="1" pageWidth="827" pageHeight="1169" math="0" shadow="0">
      <root>
        <mxCell id="0" />
        <mxCell id="1" parent="0" />
        <mxCell id="uyqaKJJ1rg2idtQFTrgF-23" style="edgeStyle=orthogonalEdgeStyle;rounded=0;orthogonalLoop=1;jettySize=auto;html=1;entryX=0.5;entryY=1;entryDx=0;entryDy=0;curved=1;endArrow=none;endFill=0;" edge="1" parent="1" source="uyqaKJJ1rg2idtQFTrgF-8" target="uyqaKJJ1rg2idtQFTrgF-15">
          <mxGeometry relative="1" as="geometry" />
        </mxCell>
        <mxCell id="uyqaKJJ1rg2idtQFTrgF-24" style="edgeStyle=orthogonalEdgeStyle;rounded=0;orthogonalLoop=1;jettySize=auto;html=1;entryX=0.5;entryY=1;entryDx=0;entryDy=0;curved=1;endArrow=none;endFill=0;" edge="1" parent="1" source="uyqaKJJ1rg2idtQFTrgF-8" target="uyqaKJJ1rg2idtQFTrgF-14">
          <mxGeometry relative="1" as="geometry" />
        </mxCell>
        <mxCell id="uyqaKJJ1rg2idtQFTrgF-25" style="edgeStyle=orthogonalEdgeStyle;rounded=0;orthogonalLoop=1;jettySize=auto;html=1;entryX=0;entryY=0.5;entryDx=0;entryDy=0;curved=1;endArrow=none;endFill=0;exitX=0.5;exitY=0;exitDx=0;exitDy=0;" edge="1" parent="1" source="uyqaKJJ1rg2idtQFTrgF-8" target="uyqaKJJ1rg2idtQFTrgF-19">
          <mxGeometry relative="1" as="geometry" />
        </mxCell>
        <mxCell id="uyqaKJJ1rg2idtQFTrgF-26" style="edgeStyle=orthogonalEdgeStyle;rounded=0;orthogonalLoop=1;jettySize=auto;html=1;entryX=0.5;entryY=1;entryDx=0;entryDy=0;curved=1;endArrow=none;endFill=0;" edge="1" parent="1" source="uyqaKJJ1rg2idtQFTrgF-8" target="uyqaKJJ1rg2idtQFTrgF-16">
          <mxGeometry relative="1" as="geometry" />
        </mxCell>
        <mxCell id="uyqaKJJ1rg2idtQFTrgF-28" style="edgeStyle=orthogonalEdgeStyle;rounded=0;orthogonalLoop=1;jettySize=auto;html=1;entryX=0;entryY=0.5;entryDx=0;entryDy=0;endArrow=none;endFill=0;" edge="1" parent="1" source="uyqaKJJ1rg2idtQFTrgF-8" target="uyqaKJJ1rg2idtQFTrgF-27">
          <mxGeometry relative="1" as="geometry" />
        </mxCell>
        <mxCell id="uyqaKJJ1rg2idtQFTrgF-8" value="Clientes" style="whiteSpace=wrap;html=1;align=center;" vertex="1" parent="1">
          <mxGeometry x="330" y="150" width="100" height="40" as="geometry" />
        </mxCell>
        <mxCell id="uyqaKJJ1rg2idtQFTrgF-31" value="" style="edgeStyle=orthogonalEdgeStyle;rounded=0;orthogonalLoop=1;jettySize=auto;html=1;endArrow=none;endFill=0;" edge="1" parent="1" source="uyqaKJJ1rg2idtQFTrgF-10" target="uyqaKJJ1rg2idtQFTrgF-30">
          <mxGeometry relative="1" as="geometry" />
        </mxCell>
        <mxCell id="uyqaKJJ1rg2idtQFTrgF-10" value="Produtos" style="whiteSpace=wrap;html=1;align=center;" vertex="1" parent="1">
          <mxGeometry x="560" y="150" width="100" height="40" as="geometry" />
        </mxCell>
        <mxCell id="uyqaKJJ1rg2idtQFTrgF-14" value="Nome" style="ellipse;whiteSpace=wrap;html=1;align=center;" vertex="1" parent="1">
          <mxGeometry x="290" y="50" width="40" height="40" as="geometry" />
        </mxCell>
        <mxCell id="uyqaKJJ1rg2idtQFTrgF-15" value="Sobrenome" style="ellipse;whiteSpace=wrap;html=1;align=center;" vertex="1" parent="1">
          <mxGeometry x="345" y="50" width="70" height="40" as="geometry" />
        </mxCell>
        <mxCell id="uyqaKJJ1rg2idtQFTrgF-16" value="Endereço" style="ellipse;whiteSpace=wrap;html=1;align=center;" vertex="1" parent="1">
          <mxGeometry x="420" y="50" width="60" height="40" as="geometry" />
        </mxCell>
        <mxCell id="uyqaKJJ1rg2idtQFTrgF-19" value="Telefone" style="ellipse;whiteSpace=wrap;html=1;align=center;" vertex="1" parent="1">
          <mxGeometry x="445" y="105" width="45" height="40" as="geometry" />
        </mxCell>
        <mxCell id="uyqaKJJ1rg2idtQFTrgF-29" style="edgeStyle=orthogonalEdgeStyle;rounded=0;orthogonalLoop=1;jettySize=auto;html=1;endArrow=none;endFill=0;" edge="1" parent="1" source="uyqaKJJ1rg2idtQFTrgF-27" target="uyqaKJJ1rg2idtQFTrgF-10">
          <mxGeometry relative="1" as="geometry" />
        </mxCell>
        <mxCell id="uyqaKJJ1rg2idtQFTrgF-27" value="Seleciona" style="shape=rhombus;perimeter=rhombusPerimeter;whiteSpace=wrap;html=1;align=center;" vertex="1" parent="1">
          <mxGeometry x="460" y="145" width="77.5" height="50" as="geometry" />
        </mxCell>
        <mxCell id="uyqaKJJ1rg2idtQFTrgF-32" value="" style="edgeStyle=orthogonalEdgeStyle;rounded=0;orthogonalLoop=1;jettySize=auto;html=1;endArrow=none;endFill=0;entryX=1;entryY=0.5;entryDx=0;entryDy=0;" edge="1" parent="1" source="uyqaKJJ1rg2idtQFTrgF-30" target="uyqaKJJ1rg2idtQFTrgF-34">
          <mxGeometry relative="1" as="geometry">
            <mxPoint x="430" y="325" as="targetPoint" />
          </mxGeometry>
        </mxCell>
        <mxCell id="uyqaKJJ1rg2idtQFTrgF-30" value="Adicionados a" style="shape=rhombus;perimeter=rhombusPerimeter;whiteSpace=wrap;html=1;align=center;" vertex="1" parent="1">
          <mxGeometry x="555" y="300" width="110" height="50" as="geometry" />
        </mxCell>
        <mxCell id="uyqaKJJ1rg2idtQFTrgF-35" value="" style="edgeStyle=orthogonalEdgeStyle;rounded=0;orthogonalLoop=1;jettySize=auto;html=1;endArrow=none;endFill=0;" edge="1" parent="1" source="uyqaKJJ1rg2idtQFTrgF-33" target="uyqaKJJ1rg2idtQFTrgF-34">
          <mxGeometry relative="1" as="geometry" />
        </mxCell>
        <mxCell id="uyqaKJJ1rg2idtQFTrgF-36" value="" style="edgeStyle=orthogonalEdgeStyle;rounded=0;orthogonalLoop=1;jettySize=auto;html=1;endArrow=none;endFill=0;" edge="1" parent="1" source="uyqaKJJ1rg2idtQFTrgF-33" target="uyqaKJJ1rg2idtQFTrgF-8">
          <mxGeometry relative="1" as="geometry" />
        </mxCell>
        <mxCell id="uyqaKJJ1rg2idtQFTrgF-33" value="Possui" style="shape=rhombus;double=1;perimeter=rhombusPerimeter;whiteSpace=wrap;html=1;align=center;" vertex="1" parent="1">
          <mxGeometry x="345" y="230" width="70" height="40" as="geometry" />
        </mxCell>
        <mxCell id="uyqaKJJ1rg2idtQFTrgF-34" value="Carrinho" style="shape=ext;margin=3;double=1;whiteSpace=wrap;html=1;align=center;" vertex="1" parent="1">
          <mxGeometry x="330" y="305" width="100" height="40" as="geometry" />
        </mxCell>
        <mxCell id="uyqaKJJ1rg2idtQFTrgF-37" value="Pedidos" style="shape=ext;margin=3;double=1;whiteSpace=wrap;html=1;align=center;" vertex="1" parent="1">
          <mxGeometry x="130" y="150" width="100" height="40" as="geometry" />
        </mxCell>
        <mxCell id="uyqaKJJ1rg2idtQFTrgF-38" value="&lt;div&gt;Cliente acessa o site. Procura ou pelo produto ou por categorias de produtos. Escolhe os produtos que quer, pondo-os no carrinho. Ao terminar, procede com nome, endereço,&lt;/div&gt;&lt;div&gt;telefone e email. Escolhe a forma de pagamento. Recebe um comprovante.&lt;/div&gt;" style="rounded=0;whiteSpace=wrap;html=1;" vertex="1" parent="1">
          <mxGeometry width="210" height="120" as="geometry" />
        </mxCell>
        <mxCell id="uyqaKJJ1rg2idtQFTrgF-40" style="edgeStyle=orthogonalEdgeStyle;rounded=0;orthogonalLoop=1;jettySize=auto;html=1;curved=1;endArrow=none;endFill=0;" edge="1" parent="1" source="uyqaKJJ1rg2idtQFTrgF-39" target="uyqaKJJ1rg2idtQFTrgF-8">
          <mxGeometry relative="1" as="geometry" />
        </mxCell>
        <mxCell id="uyqaKJJ1rg2idtQFTrgF-39" value="Email" style="ellipse;whiteSpace=wrap;html=1;align=center;fontStyle=4;" vertex="1" parent="1">
          <mxGeometry x="260" y="105" width="50" height="40" as="geometry" />
        </mxCell>
        <mxCell id="uyqaKJJ1rg2idtQFTrgF-41" value="Categoria" style="shape=ext;margin=3;double=1;whiteSpace=wrap;html=1;align=center;" vertex="1" parent="1">
          <mxGeometry x="710" y="60" width="100" height="40" as="geometry" />
        </mxCell>
        <mxCell id="uyqaKJJ1rg2idtQFTrgF-43" value="" style="edgeStyle=orthogonalEdgeStyle;rounded=0;orthogonalLoop=1;jettySize=auto;html=1;endArrow=none;endFill=0;" edge="1" parent="1" source="uyqaKJJ1rg2idtQFTrgF-42" target="uyqaKJJ1rg2idtQFTrgF-10">
          <mxGeometry relative="1" as="geometry" />
        </mxCell>
        <mxCell id="uyqaKJJ1rg2idtQFTrgF-44" value="" style="edgeStyle=orthogonalEdgeStyle;rounded=0;orthogonalLoop=1;jettySize=auto;html=1;endArrow=none;endFill=0;" edge="1" parent="1" source="uyqaKJJ1rg2idtQFTrgF-42" target="uyqaKJJ1rg2idtQFTrgF-41">
          <mxGeometry relative="1" as="geometry" />
        </mxCell>
        <mxCell id="uyqaKJJ1rg2idtQFTrgF-42" value="Pertencem a" style="shape=rhombus;double=1;perimeter=rhombusPerimeter;whiteSpace=wrap;html=1;align=center;" vertex="1" parent="1">
          <mxGeometry x="560" y="55" width="100" height="50" as="geometry" />
        </mxCell>
      </root>
    </mxGraphModel>
  </diagram>
</mxfile>
